<?xml version="1.0" encoding="UTF-8"?>
<svg width="256px" height="256px" viewBox="0 0 256 256" version="1.1" xmlns="http://www.w3.org/2000/svg" xmlns:xlink="http://www.w3.org/1999/xlink">
    <title>EosKit</title>
    <defs>
        <linearGradient x1="100%" y1="100%" x2="0%" y2="100%" id="linearGradient-1">
            <stop stop-color="#979490" offset="0%"></stop>
            <stop stop-color="#B5B1AC" offset="40.4092186%"></stop>
            <stop stop-color="#DCD7D2" offset="51.0167213%"></stop>
            <stop stop-color="#979490" offset="60.5431834%"></stop>
            <stop stop-color="#989490" offset="100%"></stop>
        </linearGradient>
        <linearGradient x1="100%" y1="100%" x2="0%" y2="100%" id="linearGradient-2">
            <stop stop-color="#4C4A48" offset="0%"></stop>
            <stop stop-color="#4A4846" offset="40.2503888%"></stop>
            <stop stop-color="#686561" offset="51.030858%"></stop>
            <stop stop-color="#4C4A47" offset="62.2703536%"></stop>
            <stop stop-color="#4C4A48" offset="100%"></stop>
        </linearGradient>
        <linearGradient x1="100%" y1="58.8706285%" x2="0%" y2="59.996838%" id="linearGradient-3">
            <stop stop-color="#262524" offset="0%"></stop>
            <stop stop-color="#2C2B29" offset="37.7432566%"></stop>
            <stop stop-color="#413F3C" offset="51.2976903%"></stop>
            <stop stop-color="#333230" offset="63.8416095%"></stop>
            <stop stop-color="#262524" offset="100%"></stop>
        </linearGradient>
        <linearGradient x1="18.8134225%" y1="30.9485356%" x2="75.8403482%" y2="67.2630815%" id="linearGradient-4">
            <stop stop-color="#4C4A48" stop-opacity="0.61" offset="0%"></stop>
            <stop stop-color="#4C4A48" stop-opacity="0.85" offset="52.1025632%"></stop>
            <stop stop-color="#4C4B4B" offset="100%"></stop>
        </linearGradient>
        <linearGradient x1="25.0135938%" y1="36.0171958%" x2="76.8562655%" y2="62.8625118%" id="linearGradient-5">
            <stop stop-color="#4C4A48" offset="0%"></stop>
            <stop stop-color="#1D1C1B" offset="100%"></stop>
        </linearGradient>
    </defs>
    <g id="EosKit" stroke="none" stroke-width="1" fill="none" fill-rule="evenodd">
        <g id="Base" transform="translate(-7.000000, -6.000000)">
            <path d="M253.072083,145.091797 L253.072083,163.091797 C252.906243,169.12714 250.871452,175.164922 246.847207,180.27092 C245.418258,182.083983 243.777936,183.71994 241.961072,185.144053 L168.065994,243.06524 C149.298197,257.776004 122.929762,257.836165 104.095034,243.211192 L29.417979,185.225226 C22.2813084,179.683674 18.4412743,171.470219 18.2133003,163.09189 L18.2,163.091797 L18.2,145.091797 L18.2603188,145.133892 C18.7656529,153.14729 22.5774606,160.913633 29.417979,166.225226 L29.417979,166.225226 L104.095034,224.211192 C122.929762,238.836165 149.298197,238.776004 168.065994,224.06524 L168.065994,224.06524 L241.961072,166.144053 C243.777936,164.71994 245.418258,163.083983 246.847207,161.27092 C250.640307,156.458201 252.665931,150.817662 253.016834,145.131645 L253.072083,145.091797 Z" id="Combined-Shape" fill="url(#linearGradient-1)"></path>
            <path d="M253.072083,126.091797 L253.072083,144.091797 C252.906243,150.12714 250.871452,156.164922 246.847207,161.27092 C245.418258,163.083983 243.777936,164.71994 241.961072,166.144053 L168.065994,224.06524 C149.298197,238.776004 122.929762,238.836165 104.095034,224.211192 L29.417979,166.225226 C22.2813084,160.683674 18.4412743,152.470219 18.2133003,144.09189 L18.2,144.091797 L18.2,126.091797 L18.2603188,126.133892 C18.7656529,134.14729 22.5774606,141.913633 29.417979,147.225226 L29.417979,147.225226 L104.095034,205.211192 C122.929762,219.836165 149.298197,219.776004 168.065994,205.06524 L168.065994,205.06524 L241.961072,147.144053 C243.777936,145.71994 245.418258,144.083983 246.847207,142.27092 C250.640307,137.458201 252.665931,131.817662 253.016834,126.131645 L253.072083,126.091797 Z" id="Combined-Shape" fill="url(#linearGradient-2)"></path>
            <path d="M253.072083,107.091797 L253.072083,125.091797 C252.906243,131.12714 250.871452,137.164922 246.847207,142.27092 C245.418258,144.083983 243.777936,145.71994 241.961072,147.144053 L168.065994,205.06524 C149.298197,219.776004 122.929762,219.836165 104.095034,205.211192 L29.417979,147.225226 C22.2813084,141.683674 18.4412743,133.470219 18.2133003,125.09189 L18.2,125.091797 L18.2,107.091797 L18.2603188,107.133892 C18.7656529,115.14729 22.5774606,122.913633 29.417979,128.225226 L29.417979,128.225226 L104.095034,186.211192 C122.929762,200.836165 149.298197,200.776004 168.065994,186.06524 L168.065994,186.06524 L241.961072,128.144053 C243.777936,126.71994 245.418258,125.083983 246.847207,123.27092 C250.640307,118.458201 252.665931,112.817662 253.016834,107.131645 L253.072083,107.091797 Z" id="Combined-Shape" fill="url(#linearGradient-3)"></path>
            <path d="M29.3571474,83.3697843 L103.985444,25.1029971 C122.86259,10.3644771 149.364809,10.4250228 168.174416,25.2496402 L242.021824,83.4517898 C254.60086,93.3658397 256.761257,111.600088 246.847207,124.179123 C245.418258,125.992186 243.777936,127.628143 241.961072,129.052256 L168.065994,186.973443 C149.298197,201.684208 122.929762,201.744368 104.095034,187.119395 L29.417979,129.133429 C16.767618,119.310553 14.4754881,101.092396 24.2983635,88.4420349 C25.7685127,86.5487077 27.4677353,84.8449617 29.3571474,83.3697843 Z" id="Rectangle" fill="url(#linearGradient-4)"></path>
            <path d="M168.377213,51.7514311 L242.224622,109.953581 C245.66903,112.668259 248.332268,116.00677 250.180342,119.682191 C249.320097,121.387192 248.277618,123.03151 247.050004,124.589117 C245.621056,126.40218 243.980734,128.038137 242.16387,129.46225 L168.268792,187.383437 C149.500994,202.094202 123.132559,202.154362 104.297831,187.529389 L29.6207763,129.543423 C26.0979189,126.80796 23.378347,123.42144 21.5,119.68541 C22.3299146,118.041342 23.32933,116.452965 24.5011609,114.943826 C25.97131,113.050499 27.6705326,111.346753 29.5599447,109.871575 L104.188241,51.6047879 C123.065387,36.866268 149.567606,36.9268137 168.377213,51.7514311 Z" id="Combined-Shape" fill="url(#linearGradient-5)"></path>
        </g>
        <path d="M132.084521,183.956035 C131.890025,183.805124 131.637386,183.736097 131.389211,183.737886 C131.145256,183.739644 130.900147,183.809564 130.750193,184.775886 C130.944842,184.926953 131.197557,184.996105 131.445758,184.994316 C131.689552,184.992559 131.934447,184.922637 132.084521,183.956035 Z M120.881987,175.263909 C120.687094,175.11269 120.433601,175.043262 120.184427,175.044526 C119.939382,175.04577 119.692998,175.1151 119.539581,176.075293 C119.734627,176.226669 119.988196,176.296221 120.237397,176.294957 C120.482281,176.293714 120.72845,176.224381 120.881987,175.263909 Z M142.795463,175.101895 C142.602206,174.952154 142.350839,174.884213 142.103814,174.886523 C141.860061,174.888802 141.615047,174.959296 141.460601,175.921331 C141.65401,176.071227 141.905453,176.139294 142.152505,176.136984 C142.396097,176.134706 142.640897,176.064209 142.795463,175.101895 Z M109.679453,166.571783 C109.484165,166.420258 109.229821,166.350428 108.979647,166.351165 C108.733508,166.35189 108.485848,166.420631 108.32897,167.3747 C108.52441,167.526383 108.778831,167.596337 109.029031,167.5956 C109.275009,167.594875 109.522455,167.52613 109.679453,166.571783 Z M131.637356,166.456336 C131.443701,166.306287 131.191479,166.237945 130.943452,166.239733 C130.698612,166.241498 130.452324,166.311402 130.294416,167.267306 C130.488224,167.417511 130.740522,167.485978 130.988575,167.484189 C131.233255,167.482426 131.479328,167.412519 131.637356,166.456336 Z M153.506408,166.247756 C153.314388,166.099185 153.064294,166.032329 152.81842,166.035157 C152.574869,166.037959 152.329948,166.109027 152.171006,167.066775 C152.363177,167.215502 152.613347,167.282483 152.859248,167.279654 C153.102639,167.276854 153.347346,167.205783 153.506408,166.247756 Z M98.9698378,157.483546 C98.6336079,157.222679 98.1959529,157.098031 97.7634061,157.098389 C97.3347499,157.098745 96.9054762,157.221641 96.582412,157.480934 C96.3117225,157.698192 96.1649544,157.978973 96.1709709,158.267857 C96.1771144,158.562838 96.3399212,158.848614 96.6254628,159.070237 C96.962075,159.3315 97.3999202,159.456414 97.8325064,159.456055 C98.2609204,159.4557 98.6897958,159.332719 99.0123261,159.073186 C99.2829322,158.855436 99.4295937,158.574243 99.4235728,158.285153 C99.4174321,157.99031 99.2549673,157.704766 98.9698378,157.483546 Z M120.970149,157.41255 C120.636105,157.153741 120.201301,157.031349 119.77163,157.033529 C119.345009,157.035694 118.917843,157.160518 118.596367,157.420983 C118.325986,157.640051 118.179608,157.922341 118.185641,158.211984 C118.191774,158.506459 118.353325,158.791383 118.637356,159.011527 C118.971781,159.270729 119.406776,159.393388 119.836486,159.391208 C120.262865,159.389044 120.689634,159.264135 121.010577,159.003432 C121.280872,158.78387 121.427144,158.501169 121.421107,158.211319 C121.414977,157.916982 121.253768,157.63229 120.970149,157.41255 Z M142.881609,157.24842 C142.549755,156.991672 142.117805,156.871534 141.691017,156.875526 C141.266422,156.879496 140.841357,157.00625 140.521462,157.267889 C140.251396,157.488772 140.105407,157.772572 140.111456,158.062976 C140.117578,158.356941 140.277872,158.641015 140.560392,158.85968 C140.892627,159.116822 141.324766,159.237226 141.751595,159.233235 C142.175948,159.229266 142.600616,159.102428 142.919978,158.840553 C143.189957,158.619173 143.335839,158.334962 143.329787,158.04435 C143.323667,157.750524 143.163717,157.466683 142.881609,157.24842 Z M164.704216,156.991158 C164.374556,156.73647 163.945467,156.618585 163.521566,156.624378 C163.098989,156.630153 162.676017,156.758837 162.357697,157.02165 C162.087954,157.244357 161.942352,157.529667 161.948416,157.820833 C161.954528,158.114285 162.113561,158.397509 162.394572,158.614696 C162.724611,158.869777 163.15389,158.98793 163.577831,158.982137 C164.000169,158.976365 164.422742,158.847596 164.740531,158.584548 C165.010185,158.361343 165.155681,158.075621 165.149612,157.784247 C165.143504,157.490936 164.984816,157.207944 164.704216,156.991158 Z M88.2642618,148.399543 C87.7871424,148.029389 87.1657517,147.849473 86.5501015,147.848685 C85.9381941,147.847902 85.326269,148.023867 84.8645676,148.390789 C84.4565651,148.715036 84.241826,149.136619 84.2497137,149.56707 C84.2577122,150.00357 84.4922134,150.431109 84.9179172,150.761541 C85.3957493,151.132435 86.0174952,151.312811 86.6331974,151.313599 C87.2447819,151.314382 87.8560739,151.138197 88.3168595,150.770741 C88.7245504,150.445626 88.9390446,150.023389 88.9311519,149.592663 C88.9231568,149.156347 88.6892137,148.729224 88.2642618,148.399543 Z M109.814062,148.769108 C109.479624,148.509994 109.043742,148.386961 108.612705,148.388232 C108.184625,148.389493 107.755675,148.513197 107.432426,148.772639 C107.161511,148.990077 107.013951,149.270545 107.019235,149.558952 C107.024607,149.852089 107.185792,150.135761 107.469152,150.355384 C107.803971,150.614893 108.240043,150.738191 108.67112,150.736921 C109.098959,150.73566 109.52751,150.611871 109.850224,150.352191 C110.121056,150.134258 110.268509,149.853379 110.263221,149.564766 C110.257852,149.271768 110.09701,148.988328 109.814062,148.769108 Z M175.902028,147.734563 C175.435892,147.374978 174.828843,147.207149 174.227648,147.216669 C173.626775,147.226184 173.026178,147.412932 172.573037,147.786897 C172.168513,148.120739 171.956455,148.549531 171.964398,148.983012 C171.972359,149.417461 172.200697,149.840429 172.618135,150.162617 C173.084979,150.522937 173.692381,150.691229 174.293631,150.681708 C174.894185,150.672198 175.494149,150.48523 175.946378,150.11074 C176.350581,149.77602 176.562396,149.346573 176.554448,148.912814 C176.54649,148.478556 176.318714,148.056002 175.902028,147.734563 Z M131.769948,148.651546 C131.437697,148.39449 131.004667,148.273713 130.57651,148.2768 C130.150462,148.279871 129.723617,148.405504 129.401954,148.66612 C129.131347,148.88537 128.984179,149.167347 128.989478,149.456511 C128.99484,149.749137 129.154765,150.031958 129.436616,150.250105 C129.769247,150.507555 130.202467,150.628597 130.630664,150.625511 C131.056471,150.622441 131.482918,150.496723 131.804047,150.235869 C132.074569,150.016124 132.22163,149.733735 132.216328,149.444365 C132.210968,149.151879 132.051387,148.86929 131.769948,148.651546 Z M153.636983,148.440851 C153.306923,148.185853 152.87675,148.067332 152.451478,148.072224 C152.027453,148.077102 151.602706,148.204665 151.282622,148.466458 C151.012331,148.687526 150.865553,148.971014 150.870866,149.260936 C150.876219,149.553046 151.03488,149.835018 151.315222,150.051689 C151.645663,150.30708 152.076025,150.425868 152.501337,150.420975 C152.925122,150.4161 153.349471,150.288452 153.669022,150.026423 C153.939225,149.804858 154.085897,149.520958 154.08058,149.230829 C154.07523,148.938859 153.916914,148.65712 153.636983,148.440851 Z M77.5627246,139.319773 C76.9447688,138.840387 76.1392173,138.604754 75.3397332,138.602051 C74.5438403,138.599361 73.7482263,138.827309 73.1467176,139.300633 C72.6002393,139.730655 72.316491,140.291956 72.3255215,140.863217 C72.3346468,141.440471 72.6404215,142.009322 73.2063328,142.448611 C73.8254334,142.929188 74.6315558,143.165528 75.4311044,143.168231 C76.2265933,143.170921 77.0212885,142.942564 77.6213976,142.468304 C78.1672359,142.036935 78.4505498,141.474682 78.4415139,140.90308 C78.4323922,140.326057 78.127443,139.757859 77.5627246,139.319773 Z M121.151208,139.65856 C120.679178,139.293384 120.063643,139.118638 119.453475,139.121733 C118.845281,139.124819 118.236746,139.304522 117.777008,139.673353 C117.369635,140.000173 117.154553,140.423009 117.161356,140.853356 C117.168213,141.287116 117.39905,141.710875 117.819944,142.03666 C118.292685,142.402575 118.908574,142.577782 119.518794,142.574686 C120.126667,142.571602 120.734569,142.391678 121.193391,142.022316 C121.60045,141.694625 121.815288,141.271134 121.808481,140.840512 C121.801627,140.406939 121.571351,139.983596 121.151208,139.65856 Z M143.06065,139.492316 C142.591365,139.12978 141.979415,138.958057 141.372862,138.963729 C140.767428,138.969392 140.161725,139.151791 139.704129,139.522384 C139.297622,139.851602 139.083212,140.27624 139.090027,140.707341 C139.096876,141.140585 139.326168,141.563202 139.744997,141.886928 C140.214993,142.250201 140.827296,142.422386 141.433903,142.416713 C142.039017,142.411054 142.644086,142.228434 143.100768,141.857311 C143.506958,141.527221 143.721124,141.101927 143.714304,140.67055 C143.707459,140.237495 143.478728,139.815293 143.06065,139.492316 Z M164.881241,139.232939 C164.414704,138.873045 163.806344,138.704342 163.203411,138.712582 C162.600728,138.720818 161.997851,138.905914 161.542389,139.278272 C161.136756,139.609893 160.923017,140.036335 160.929844,140.468192 C160.936684,140.900916 161.164429,141.322391 161.581193,141.644059 C162.048439,142.00469 162.657153,142.173855 163.26014,142.165615 C163.862504,142.157383 164.464748,141.972067 164.919296,141.599181 C165.32461,141.266684 165.538105,140.839587 165.531274,140.407454 C165.524436,139.97492 165.297255,139.55386 164.881241,139.232939 Z M186.61298,138.88043 C186.149195,138.523178 185.544429,138.357494 184.945124,138.36829 C184.345181,138.379098 183.745124,138.566892 183.291789,138.941016 C182.887036,139.275047 182.673967,139.703294 182.680806,140.135909 C182.687638,140.568107 182.913832,140.988443 183.328532,141.308055 C183.793025,141.666042 184.398144,141.832189 184.997505,141.821392 C185.597129,141.81059 186.196553,141.622576 186.648975,141.247926 C187.053406,140.913016 187.266232,140.484114 187.259389,140.051222 C187.25256,139.619216 187.026931,139.199295 186.61298,138.88043 Z M132.488356,130.548015 C131.879899,130.077995 131.085747,129.852621 130.297182,129.858306 C129.509604,129.863983 128.721909,130.100133 128.125629,130.5783 C127.581744,131.014451 127.298664,131.579158 127.306253,132.150681 C127.31387,132.724292 127.613373,133.287104 128.170734,133.717933 C128.780332,134.189141 129.575053,134.415224 130.363685,134.409539 C131.150862,134.403865 131.937639,134.167305 132.53252,133.688208 C133.075758,133.250702 133.358405,132.685043 133.350811,132.113178 C133.343198,131.539803 133.044526,130.977643 132.488356,130.548015 Z M154.351355,130.333089 C153.7462,129.866292 152.956365,129.644708 152.17215,129.65373 C151.38806,129.66275 150.603925,129.902363 150.010342,130.382882 C149.467881,130.822016 149.185754,131.388818 149.193353,131.961092 C149.200963,132.534182 149.498637,133.09556 150.053377,133.523749 C150.659671,133.991731 151.450075,134.214026 152.234357,134.205003 C153.018048,134.195987 153.801265,133.955966 154.39345,133.474519 C154.935261,133.034028 155.216956,132.466272 155.209352,131.893656 C155.201746,131.320804 154.904904,130.760077 154.351355,130.333089 Z M65.8672713,131.023758 C65.3893777,130.653003 64.7653914,130.471321 64.1462827,130.467933 C63.5307041,130.464564 62.9141875,130.637227 62.4478064,131.000917 C62.037641,131.320768 61.8195111,131.737656 61.8251842,132.1649 C61.8309345,132.59796 62.0642723,133.022513 62.4886161,133.351889 C62.9672232,133.723384 63.5915648,133.905525 64.2107246,133.908914 C64.82598,133.912281 65.4418624,133.739396 65.9073255,133.375169 C66.317184,133.054454 66.5350665,132.636912 66.5293898,132.209396 C66.5236419,131.776521 66.2908639,131.352385 65.8672713,131.023758 Z M176.125502,130.02503 C175.523654,129.561458 174.738141,129.343661 173.958281,129.35601 C173.177669,129.368372 172.397088,129.611448 171.806195,130.094319 C171.265165,130.536443 170.983989,131.105342 170.991598,131.67837 C170.999201,132.250933 171.295043,132.810879 171.847162,133.236429 C172.450149,133.701185 173.23623,133.919693 174.016158,133.907343 C174.796372,133.894988 175.576035,133.651503 176.165532,133.167706 C176.705909,132.724222 176.986652,132.154369 176.979039,131.580998 C176.971439,131.008675 176.676431,130.44938 176.125502,130.02503 Z M197.323936,130.026298 C196.8625,129.671377 196.260018,129.507839 195.662603,129.519908 C195.063591,129.53201 194.464071,129.72085 194.010541,130.095135 C193.605556,130.429358 193.391478,130.857063 193.397211,131.288813 C193.402919,131.718754 193.626966,132.136455 194.038927,132.453492 C194.501069,132.809147 195.103904,132.973148 195.701374,132.961078 C196.300069,132.948983 196.898956,132.759922 197.351572,132.385111 C197.756235,132.05001 197.97007,131.621648 197.964333,131.189623 C197.958627,130.759876 197.735148,130.342589 197.323936,130.026298 Z M143.825508,121.437471 C143.081788,120.863829 142.110054,120.588913 141.143825,120.597949 C140.177594,120.606985 139.211163,120.900028 138.478289,121.487481 C137.797838,122.032913 137.446285,122.738993 137.453927,123.450926 C137.461578,124.163617 137.828761,124.864447 138.521521,125.399205 C139.266913,125.974591 140.239482,126.250517 141.205791,126.241481 C142.171542,126.232449 143.136718,125.938754 143.867609,125.349867 C144.54698,124.802489 144.897861,124.095106 144.890214,123.382765 C144.882566,122.670361 144.516535,121.970471 143.825508,121.437471 Z M165.642063,121.173863 C164.902204,120.604027 163.935519,120.333667 162.974374,120.346801 C162.012358,120.359948 161.050216,120.65722 160.320594,121.247612 C159.642125,121.796613 159.291805,122.505082 159.299456,123.217764 C159.307101,123.929928 159.67217,124.629033 160.361754,125.160569 C161.103284,125.732146 162.070802,126.003518 163.032028,125.990382 C163.993565,125.977243 164.954453,125.679319 165.682093,125.087495 C166.359479,124.536545 166.709126,123.826773 166.701471,123.113681 C166.693829,122.401807 166.329914,121.703642 165.642063,121.173863 Z M54.1677792,122.723509 C53.8300004,122.461441 53.3880585,122.334209 52.9500567,122.330899 C52.5155201,122.327615 52.0790831,122.446025 51.7488907,122.701191 C51.4761047,122.911995 51.3245748,123.185502 51.3276235,123.469503 C51.3307327,123.759135 51.4921167,124.039887 51.7749382,124.2594 C52.1131002,124.521865 52.5552327,124.649361 52.9932726,124.652671 C53.4275666,124.655953 53.8636037,124.537457 54.1932587,124.282045 C54.4659685,124.070753 54.6173879,123.796835 54.6143369,123.512632 C54.6112292,123.223139 54.4501897,122.94262 54.1677792,122.723509 Z M186.392004,121.617809 C185.930164,121.262577 185.326367,121.098167 184.727212,121.10896 C184.126395,121.119784 183.524597,121.30697 183.068748,121.679645 C182.662646,122.011649 182.446887,122.437009 182.451504,122.867141 C182.456101,123.295355 182.679561,123.711557 183.09084,124.028069 C183.553387,124.384036 184.157536,124.548909 184.756746,124.538115 C185.357246,124.527297 185.95841,124.339889 186.413344,123.966687 C186.819127,123.633806 187.034641,123.207789 187.03002,122.777383 C187.025426,122.349364 186.802534,121.933576 186.392004,121.617809 Z M207.548033,121.574629 C207.225541,121.32693 206.803567,121.215511 206.385764,121.224869 C205.965446,121.234284 205.543725,121.366206 205.224628,121.62966 C204.953963,121.853127 204.805225,122.137213 204.80833,122.426447 C204.8114,122.712415 204.963866,122.987222 205.236155,123.196446 C205.559023,123.444536 205.981186,123.556223 206.39903,123.546864 C206.81911,123.537455 207.240433,123.405447 207.558996,123.141758 C207.829571,122.91779 207.978203,122.633291 207.975096,122.343851 C207.972027,122.058031 207.819912,121.783455 207.548033,121.574629 Z M154.669743,112.72304 C153.929485,112.152897 152.961039,111.881186 151.997425,111.892272 C151.032863,111.903369 150.067428,112.197929 149.334362,112.785535 C148.65367,113.33116 148.300654,114.036229 148.306463,114.746539 C148.312267,115.45621 148.676305,116.153341 149.3652,116.684346 C150.107129,117.25623 151.076409,117.528952 152.040104,117.517865 C153.004186,117.506774 153.968367,117.211562 154.699449,116.622521 C155.379061,116.074949 155.731402,115.368577 155.72559,114.65786 C155.719789,113.948479 155.356906,113.252289 154.669743,112.72304 Z M175.950973,112.811093 C175.351628,112.350127 174.567363,112.133894 173.787652,112.146241 C173.006165,112.158617 172.223564,112.400791 171.629594,112.881622 C171.086656,113.321142 170.802058,113.886394 170.806718,114.456183 C170.811361,115.023996 171.103747,115.579035 171.651878,116.000893 C172.252361,116.463044 173.037193,116.679988 173.816971,116.667639 C174.598061,116.65527 175.379743,116.412686 175.972314,115.930926 C176.514602,115.490047 176.798766,114.923842 176.794104,114.353712 C176.789462,113.786144 176.497914,113.231754 175.950973,112.811093 Z M65.189712,114.19534 C64.8537208,113.935023 64.4135459,113.809408 63.9770476,113.807019 C63.5430977,113.804644 63.1069889,113.923857 62.7766142,114.179164 C62.5035856,114.390156 62.3512659,114.663358 62.3535846,114.946895 C62.3559381,115.234678 62.5157145,115.513314 62.7963364,115.730816 C63.1327104,115.991529 63.5730755,116.117408 64.009612,116.119797 C64.4433199,116.122171 64.8790286,116.002871 65.2088656,115.747318 C65.4818178,115.535839 65.6340266,115.262225 65.6317062,114.978487 C65.6293539,114.690844 65.4699234,114.41244 65.189712,114.19534 Z M42.4642483,114.419027 C42.2666371,114.2657 42.0072185,114.193416 41.751055,114.190949 C41.4982886,114.188514 41.242913,114.253701 41.0652992,115.171144 C41.2630646,115.324631 41.5225596,115.397036 41.7787483,115.399504 C42.0313529,115.401938 42.2865123,115.336745 42.4642483,114.419027 Z M196.658508,113.210591 C196.335612,112.96258 195.912547,112.850526 195.493368,112.858994 C195.071613,112.867515 194.648121,112.998311 194.327262,113.260737 C194.056034,113.482572 193.90612,113.764844 193.908476,114.052847 C193.910803,114.337469 194.062912,114.61101 194.334514,114.819708 C194.657789,115.068109 195.081041,115.180431 195.500261,115.171962 C195.921778,115.163446 196.344872,115.032564 196.665196,114.769901 C196.936337,114.547567 197.086142,114.264882 197.083785,113.976675 C197.081459,113.6922 196.929702,113.418889 196.658508,113.210591 Z M217.772132,113.122962 C217.58752,112.981367 217.345069,112.921035 217.10615,112.926914 C216.863795,112.932877 216.619393,113.007379 216.43338,113.939399 C216.618141,114.081147 216.860667,114.141605 217.099613,114.135726 C217.34181,114.129766 217.585997,114.055259 217.772132,113.122962 Z M165.51398,104.00861 C164.777183,103.441966 163.812026,103.17346 162.851029,103.186593 C161.888137,103.199751 160.923694,103.495828 160.190435,104.083589 C159.509498,104.62941 159.155022,105.333471 159.158996,106.042159 C159.162958,106.748804 159.52385,107.442232 160.208877,107.969484 C160.947344,108.537869 161.913334,108.807386 162.874412,108.794253 C163.836826,108.781101 164.800014,108.484372 165.531289,107.895174 C166.211145,107.347406 166.564946,106.642042 166.56097,105.932948 C166.557009,105.226596 166.197276,104.534109 165.51398,104.00861 Z M76.7126445,105.279528 C76.2390564,104.913146 75.6183188,104.734871 75.0012217,104.732785 C74.3857065,104.730704 73.7679972,104.903795 73.2989042,105.266146 C72.8871721,105.584188 72.6653126,105.997651 72.6676896,106.421609 C72.670083,106.848479 72.8986216,107.266242 73.3167596,107.589893 C73.7910601,107.957016 74.4121523,108.135749 75.0293006,108.137835 C75.6444938,108.139915 76.2615679,107.9666 76.7297409,107.603711 C77.1411681,107.284805 77.3627778,106.870687 77.3603993,106.446461 C77.358007,106.01978 77.1300331,105.602433 76.7126445,105.279528 Z M54.0336246,105.551898 C53.6972503,105.291284 53.2560064,105.165019 52.8181438,105.16171 C52.382719,105.15842 51.9448142,105.276507 51.612649,105.530772 C51.3390979,105.740168 51.185581,106.011561 51.187164,106.293898 C51.18877,106.580343 51.348209,106.857713 51.6281325,107.074674 C51.9648897,107.335684 52.406324,107.462213 52.8442244,107.465522 C53.2794072,107.468811 53.7169114,107.350635 54.0485382,107.096124 C54.3220146,106.886241 54.4754196,106.614437 54.4738355,106.3319 C54.4722302,106.045595 54.3131379,105.768457 54.0336246,105.551898 Z M186.259885,104.448325 C185.799989,104.095112 185.197161,103.931975 184.598155,103.942765 C183.996464,103.953604 183.392925,104.14018 182.934555,104.511399 C182.527095,104.841388 182.308647,105.263873 182.311045,105.691536 C182.313423,106.115756 182.534158,106.527813 182.941999,106.841216 C183.402602,107.195164 184.005782,107.358763 184.604842,107.347972 C185.206216,107.337138 185.809121,107.15034 186.266574,106.778591 C186.673717,106.447726 186.891918,106.024584 186.889519,105.59665 C186.887142,105.172628 186.666978,104.760984 186.259885,104.448325 Z M31.2617142,105.726902 C31.0637232,105.573279 30.8034646,105.500581 30.5463044,105.497572 C30.2924231,105.494601 30.035753,105.559192 29.8546874,106.470552 C30.0528328,106.624333 30.3131678,106.697153 30.570353,106.700162 C30.8240726,106.703131 31.0805262,106.638534 31.2617142,105.726902 Z M207.413897,104.40303 C207.092789,104.156762 206.671502,104.046326 206.253851,104.055681 C205.832663,104.065115 205.409479,104.196718 205.088422,104.459307 C204.81695,104.681341 204.666258,104.963318 204.66787,105.250842 C204.669455,105.533575 204.819919,105.805003 205.08933,106.011708 C205.410816,106.258367 205.83229,106.369071 206.249982,106.359715 C206.670933,106.350286 207.093718,106.218595 207.414239,105.95577 C207.685624,105.733237 207.836207,105.450847 207.834594,105.163119 C207.83301,104.880535 207.682899,104.609337 207.413897,104.40303 Z M228.483095,104.268836 C228.299715,104.128397 228.058538,104.069155 227.820787,104.075531 C227.578629,104.082026 227.334307,104.1571 227.143766,105.08483 C227.327295,105.225422 227.568546,105.28479 227.806326,105.278413 C228.048326,105.271923 228.292433,105.196844 228.483095,104.268836 Z M88.2355799,96.3637184 C87.6255598,95.8924913 86.8252948,95.6626426 86.0283319,95.6616225 C85.2319819,95.6606032 84.433097,95.8880192 83.825233,96.3573604 C83.2747429,96.7824023 82.9828681,97.3356297 82.9845712,97.8992436 C82.986279,98.4644288 83.2825938,99.0202845 83.8371805,99.4489691 C84.4483435,99.9213861 85.2491779,100.151941 86.0462051,100.152961 C86.8421536,100.15398 87.6401174,99.9261513 88.2465773,99.4558698 C88.7964326,99.0294825 89.0878678,98.4753028 89.0861637,97.9113551 C89.0844566,97.3464087 88.788977,96.7912055 88.2355799,96.3637184 Z M175.8653,95.6902931 C175.268458,95.2319316 174.485441,95.0172621 173.705879,95.0296069 C172.923517,95.041996 172.138893,95.2832651 171.541843,95.7620504 C170.996987,96.1989798 170.708967,96.760595 170.710679,97.3271594 C170.71238,97.890211 171.001321,98.4403337 171.545445,98.8584909 C172.143425,99.3180362 172.927009,99.5334162 173.706638,99.5210703 C174.488603,99.5086875 175.272307,99.2670066 175.867956,98.7872905 C176.412164,98.3490035 176.699749,97.7864341 176.698036,97.2195326 C176.696335,96.6567281 176.408236,96.1072556 175.8653,95.6902931 Z M65.0999872,97.0702974 C64.7653986,96.8114327 64.3259205,96.6867858 63.889562,96.6843975 C63.4547258,96.6820176 63.0171486,96.8009072 62.6847996,97.0553122 C62.410998,97.2649006 62.2566941,97.5359944 62.2575458,97.8178709 C62.2584058,98.1024599 62.4162389,98.3777084 62.6939554,98.5926553 C63.0289265,98.8519161 63.4685945,98.9768269 63.904991,98.9792153 C64.3395857,98.9815939 64.7767623,98.8626158 65.1085723,98.607964 C65.3822992,98.397889 65.5364908,98.1263835 65.5356385,97.8443072 C65.534779,97.5598604 65.377294,97.2848443 65.0999872,97.0702974 Z M42.3725014,97.2918665 C42.175738,97.1394098 41.9167388,97.0678002 41.6607135,97.065334 C41.4070585,97.0628905 41.1504928,97.1280457 40.96494,98.035102 C41.1618574,98.1877171 41.4209328,98.2594491 41.6769832,98.2619156 C41.9304767,98.2643575 42.1868259,98.1991963 42.3725014,97.2918665 Z M196.5688,96.0855588 C196.247287,95.8389801 195.824911,95.7279077 195.405883,95.736373 C194.983256,95.744911 194.558299,95.875387 194.235478,96.136942 C193.963441,96.3573512 193.811572,96.6375202 193.812437,96.9238231 C193.813287,97.2052089 193.963402,97.4753658 194.232117,97.6815367 C194.554007,97.928506 194.976571,98.039846 195.39564,98.0313798 C195.818029,98.0228466 196.242587,97.892283 196.564872,97.6304898 C196.836823,97.4095831 196.988583,97.1290006 196.987717,96.842495 C196.986868,96.5612588 196.837106,96.2913322 196.5688,96.0855588 Z M20.0591801,97.0347756 C19.8608115,96.8808599 19.5997146,96.8077451 19.341558,96.804193 C19.086559,96.8006843 18.828592,96.8646782 18.6440757,97.7699589 C18.8425989,97.9240335 19.1037723,97.9972704 19.3619536,98.0008228 C19.6167908,98.0043293 19.8745411,97.9403292 20.0591801,97.0347756 Z M217.680406,95.9958149 C217.496618,95.8550642 217.254575,95.7954244 217.015808,95.8012992 C216.772584,95.8072837 216.526998,95.8817588 216.332999,96.8033429 C216.516937,96.9442469 216.759054,97.0040125 216.997848,96.998137 C217.240914,96.9921564 217.486285,96.917676 217.680406,95.9958149 Z M239.194062,95.4147114 C239.011912,95.2754278 238.77201,95.2172749 238.535428,95.2241461 C238.293467,95.2311737 238.049222,95.3068182 237.854149,96.2302596 C238.036448,96.3696959 238.276423,96.427975 238.513034,96.4211029 C238.754837,96.4140799 238.998866,96.3384303 239.194062,95.4147114 Z M99.7585181,87.4479105 C99.0132311,86.873059 98.0344739,86.5927213 97.0583783,86.5935308 C96.0819238,86.5943406 95.1022882,86.8765282 94.3556006,87.4528084 C93.6662979,87.9848 93.3039324,88.6772944 93.3042292,89.3797993 C93.3045261,90.0825269 93.6676312,90.7754411 94.3575989,91.3080433 C95.1045606,91.8846404 96.0841525,92.1659856 97.0603255,92.1651761 C98.0362992,92.1643667 99.0146772,91.8815234 99.7593748,91.3037957 C100.447611,90.76987 100.809296,90.0760729 100.809,89.3731688 C100.808703,88.6707309 100.446755,87.9787586 99.7585181,87.4479105 Z M76.6693691,88.2031715 C76.1977391,87.838824 75.577976,87.6618104 74.9610192,87.6597246 C74.3446198,87.6576407 73.7251625,87.8301145 73.2535361,88.190977 C72.8404653,88.5070359 72.6158933,88.9176305 72.6160714,89.3391664 C72.6162501,89.7620688 72.8421164,90.1756726 73.2567839,90.4961816 C73.7291259,90.861269 74.3492432,91.038741 74.966251,91.0408269 C75.5823291,91.0429097 76.2011505,90.870211 76.6718552,90.5088068 C77.0846232,90.191886 77.3089436,89.7806358 77.3087654,89.3588345 C77.3085868,88.9361237 77.0832881,88.5229357 76.6693691,88.2031715 Z M53.988327,88.4734227 C53.6533563,88.2142623 53.2128093,88.0889641 52.7750855,88.0856561 C52.3387742,88.0823588 51.8993996,88.2001211 51.5652571,88.453477 C51.2909305,88.6614789 51.1354272,88.9307675 51.1355458,89.2114556 C51.1356654,89.4947054 51.2931709,89.7686821 51.5701787,89.9830805 C51.9055321,90.2426371 52.3462691,90.3681989 52.7840307,90.3715071 C53.2201004,90.3748026 53.6590739,90.2569512 53.9926767,90.0033469 C54.2669303,89.7948598 54.4223203,89.5251595 54.4222016,89.244273 C54.422082,88.9611656 54.2649254,88.6874214 53.988327,88.4734227 Z M186.216623,87.3719774 C185.75867,87.0207815 185.156809,86.8589166 184.557953,86.8697046 C183.955389,86.8805595 183.350105,87.0665207 182.889212,87.436278 C182.480384,87.7642657 182.259247,88.1838863 182.259427,88.6090938 C182.259604,89.0293103 182.477624,89.4372108 182.88201,89.7474956 C183.340669,90.0994251 183.942882,90.2617525 184.541792,90.2509635 C185.144039,90.2401144 185.748688,90.0539294 186.208663,89.6836399 C186.617176,89.354778 186.838065,88.9345001 186.837885,88.5090237 C186.837708,88.0890071 186.620261,87.68152 186.216623,87.3719774 Z M31.2143945,88.6463079 C31.0172524,88.4935576 30.7574134,88.4215316 30.5003902,88.4185243 C30.2456202,88.4155435 29.9877586,88.4801005 29.7987555,89.3810766 C29.9960519,89.5339854 30.2559671,89.6061336 30.5130152,89.6091411 C30.7676237,89.6121201 31.0252686,89.5475566 31.2143945,88.6463079 Z M207.368618,87.3245674 C207.048892,87.0797286 206.628292,86.9702751 206.210793,86.9796266 C205.788735,86.9890803 205.364086,87.1203623 205.041065,87.382079 C204.768777,87.6026917 204.616131,87.8825713 204.616252,88.1683998 C204.61637,88.4478874 204.764841,88.7159259 205.031358,88.9201024 C205.35146,89.1653311 205.772247,89.2750524 206.189788,89.2656999 C206.611609,89.2562515 207.035858,89.1248815 207.358343,88.8629265 C207.630545,88.6418159 207.783081,88.3615226 207.78296,88.0754921 C207.782842,87.7961557 207.634727,87.5283472 207.368618,87.3245674 Z M228.4358,87.1882579 C228.253241,87.0486614 228.012471,86.9901114 227.774872,86.9964838 C227.531848,87.0030017 227.28634,87.0780467 227.087809,87.9953394 C227.270518,88.1350888 227.511361,88.1937647 227.748988,88.1873916 C227.991855,88.1808779 228.237147,88.1058274 228.4358,87.1882579 Z M110.780462,78.9197483 C110.038632,78.3483947 109.063157,78.0712633 108.08967,78.0741323 C107.114896,78.077005 106.13626,78.3607051 105.389382,78.9371317 C104.699822,79.4693223 104.335997,80.1608152 104.334461,80.8617095 C104.332928,81.5614132 104.692903,82.2506143 105.378987,82.7794527 C106.122491,83.3525507 107.098799,83.63069 108.072364,83.6278208 C109.046658,83.6249495 110.024037,83.3405929 110.768923,82.7627187 C111.457418,82.2285931 111.820562,81.535797 111.822098,80.8345048 C111.823631,80.135094 111.464816,79.4468343 110.780462,78.9197483 Z M88.2387538,79.3360475 C87.6312476,78.8674375 86.8322346,78.6391425 86.0354125,78.6381226 C85.2381803,78.6371022 84.4372678,78.863607 83.8263113,79.3308752 C83.2739169,79.7533543 82.9786013,80.3029527 82.9773734,80.8633827 C82.9761455,81.4238262 83.2690592,81.9747511 83.8196101,82.3997064 C84.4282589,82.8695058 85.2278408,83.0985069 86.0247268,83.0995269 C86.8215583,83.1005468 87.6215489,82.8736274 88.2310992,82.4054162 C88.7828615,81.9815934 89.0777352,81.4310421 89.0789638,80.8702815 C89.0801912,80.3100801 88.7881166,79.7598074 88.2387538,79.3360475 Z M65.0991195,80.0383912 C64.7659324,79.7809779 64.3271501,79.6572982 63.8909309,79.6549107 C63.4552101,79.6525259 63.0161624,79.7710886 62.681835,80.0245847 C62.4072495,80.2327829 62.250962,80.501779 62.2503481,80.78201 C62.2497316,81.0633957 62.4056329,81.3352453 62.6804262,81.5476276 C63.0139955,81.8054366 63.4529674,81.9293801 63.8892245,81.9317678 C64.3247043,81.9341512 64.7633507,81.815499 65.0971381,81.5617544 C65.3716504,81.3530706 65.5278242,81.0836625 65.5284386,80.8032337 C65.5290548,80.521992 65.3735039,80.2503747 65.0991195,80.0383912 Z M42.3696115,80.2578418 C42.173695,80.1062553 41.9151142,80.0353186 41.6592265,80.0328537 C41.4046848,80.0304017 41.1469269,80.0955215 40.9534327,80.9921926 C41.1495031,81.1439373 41.4081599,81.2149963 41.6640726,81.2174615 C41.9184532,81.2199119 42.1759942,81.1547853 42.3696115,80.2578418 Z M196.567949,79.0536634 C196.247819,78.8085156 195.82613,78.6984239 195.407251,78.7068861 C194.983755,78.7154417 194.557331,78.8455945 194.232543,79.1062721 C193.959687,79.3252683 193.805863,79.603345 193.805239,79.8879622 C193.80463,80.1661018 193.952762,80.4328631 194.218572,80.6364983 C194.539078,80.8820362 194.960954,80.9923953 195.379874,80.9839322 C195.803134,80.9753815 196.229157,80.8451402 196.553408,80.5842227 C196.82618,80.3647299 196.979893,80.0862396 196.980518,79.8014214 C196.981127,79.5234335 196.833351,79.2569023 196.567949,79.0536634 Z M217.677538,78.9618045 C217.494572,78.8218968 217.252936,78.7629478 217.014321,78.7688189 C216.77023,78.7748247 216.523456,78.8492695 216.32147,79.7604191 C216.504585,79.90048 216.746296,79.9595546 216.984938,79.9536828 C217.228872,79.9476809 217.475429,79.8732303 217.677538,78.9618045 Z M99.8081415,70.4689254 C99.0659239,69.8972733 98.0886962,69.6187822 97.112742,69.6195916 C96.1354073,69.6204021 95.1534646,69.9013847 94.4031254,70.4750067 C93.7113526,71.0038557 93.3448181,71.6919611 93.3414519,72.39052 C93.3380922,73.087732 93.6970671,73.7749439 94.3824338,74.3032295 C95.1263255,74.8766266 96.1043874,75.1561248 97.0804186,75.1553154 C98.0572734,75.1545053 99.0379575,74.8728649 99.7863043,74.2977922 C100.477014,73.7670111 100.842866,73.0776025 100.846234,72.3786482 C100.849592,71.6817297 100.491779,70.9954595 99.8081415,70.4689254 Z M121.802408,70.3915878 C121.064034,69.8237305 120.091842,69.5498058 119.120966,69.5547315 C118.147872,69.5596684 117.170233,69.8448806 116.423164,70.4214549 C115.733342,70.9538476 115.368059,71.6443425 115.364689,72.3436268 C115.361332,73.0402996 115.718175,73.7257854 116.400373,74.2508604 C117.140419,74.8204609 118.113444,75.0953939 119.084399,75.0904678 C120.057014,75.0855333 121.033395,74.7996638 121.778472,74.2216416 C122.467228,73.6873132 122.831829,72.9955145 122.8352,72.2958336 C122.838556,71.599457 122.482877,70.9149121 121.802408,70.3915878 Z M76.7149507,71.219951 C76.2452779,70.8576374 75.6264882,70.6818837 75.0096712,70.6797984 C74.3923892,70.6777115 73.7711819,70.8495645 73.2970179,71.208933 C72.8825975,71.5230219 72.6553137,71.9307588 72.653294,72.349887 C72.6512753,72.7688125 72.8744811,73.1782457 73.2856601,73.4956028 C73.7560444,73.8586559 74.375188,74.0348676 74.9920558,74.0369531 C75.6090171,74.0390389 76.2295878,73.8669597 76.7028285,73.5070473 C77.1169483,73.1920979 77.3439786,72.783705 77.3459996,72.3643139 C77.3480173,71.9455826 77.1253824,71.536565 76.7149507,71.219951 Z M54.0318865,71.4880837 C53.6983183,71.230376 53.2584673,71.1060434 52.8208816,71.1027365 C52.3836856,71.0994326 51.9428392,71.2168656 51.6067153,71.469307 C51.3316021,71.6759271 51.1741131,71.9431231 51.1727684,72.2221762 C51.1714189,72.5022218 51.3270026,72.7727935 51.6010768,72.98462 C51.9350274,73.2427237 52.3750681,73.3673196 52.8126914,73.3706268 C53.2496463,73.3739289 53.6900911,73.2564058 54.0256742,73.0037143 C54.3007159,72.7966101 54.4580902,72.5290021 54.4594358,72.2497524 C54.4607846,71.9698512 54.305552,71.6995118 54.0318865,71.4880837 Z M207.412197,70.339241 C207.093852,70.095831 206.673938,69.9873588 206.256589,69.996707 C205.833662,70.0061802 205.407547,70.1371375 205.082557,70.3979763 C204.809442,70.6171806 204.654844,70.8949739 204.653475,71.1791204 C204.652143,71.4553531 204.798632,71.7199907 205.062237,71.9216294 C205.380958,72.165429 205.801059,72.2741687 206.218449,72.2648195 C206.641139,72.2553517 207.066854,72.1243055 207.391306,71.8632267 C207.664337,71.6435254 207.818824,71.3653183 207.820195,71.0809715 C207.821525,70.804892 207.675394,70.5404843 207.412197,70.339241 Z M88.3307849,62.4015128 C87.7257914,61.935519 86.9280294,61.7087769 86.1313476,61.7077572 C85.3332349,61.7067356 84.5302927,61.9323257 83.9162396,62.3975147 C83.3619296,62.817444 83.0631741,63.3634248 83.0590164,63.920685 C83.0548703,64.4763776 83.3443944,65.0223603 83.8908915,65.4435764 C84.497027,65.9107592 85.2953576,66.1382071 86.092103,66.1392269 C86.8898158,66.140248 87.6918351,65.9142416 88.3044801,65.4481068 C88.8581606,65.0268356 89.1564719,64.4799015 89.1606321,63.9223138 C89.1647764,63.3668664 88.8760952,62.8215357 88.3307849,62.4015128 Z M110.371498,62.372859 C109.769787,61.9100736 108.976327,61.6871337 108.18399,61.6894688 C107.389393,61.6918105 106.590027,61.920864 105.97869,62.3884228 C105.425767,62.8113062 105.127988,63.3593844 105.123825,63.9173656 C105.119683,64.4725175 105.407352,65.0170661 105.951238,65.4356578 C106.554089,65.8996307 107.348117,66.1232774 108.140519,66.1209421 C108.934717,66.1186015 109.733161,65.8891321 110.34309,65.4206299 C110.89538,64.9964015 111.192716,64.4473697 111.196882,63.88906 C111.201022,63.3341554 110.914198,62.7902583 110.371498,62.372859 Z M132.32336,62.2510726 C131.724935,61.7914964 130.935782,61.5723568 130.147796,61.5780369 C129.356704,61.5837394 128.560908,61.8162571 127.952282,62.2861866 C127.400753,62.7120309 127.103948,63.2622073 127.099779,63.8209118 C127.095641,64.3755183 127.381451,64.918634 127.922727,65.3346028 C128.522291,65.795365 129.312011,66.0152124 130.100063,66.0095318 C130.890757,66.0038322 131.68563,65.7708989 132.29285,65.3000283 C132.843743,64.8728359 133.140106,64.3217055 133.144277,63.7626716 C133.148413,63.2083146 132.86345,62.6658498 132.32336,62.2510726 Z M65.6941644,62.7183275 C65.2241094,62.3557189 64.6040235,62.1790758 63.9854728,62.1756904 C63.3663529,62.1723019 62.742843,62.3424948 62.2663252,62.7002221 C61.8508152,63.0121501 61.6218257,63.4175605 61.6187102,63.8351309 C61.6155974,64.2523321 61.8382634,64.6602475 62.2487184,64.9770457 C62.7194854,65.3403941 63.3399252,65.5174948 63.9585262,65.5208805 C64.5773254,65.5242673 65.2001982,65.3538473 65.6757917,64.995574 C66.0910033,64.6827874 66.319738,64.2767211 66.3228555,63.8588895 C66.3259668,63.4418828 66.1038725,63.0343833 65.6941644,62.7183275 Z M197.150894,61.7209109 C196.697223,61.3740535 196.098607,61.2156089 195.501793,61.2276659 C194.899297,61.2398376 194.292801,61.4262216 193.829179,61.7946703 C193.418709,62.1208786 193.193884,62.5371281 193.190736,62.9590438 C193.187648,63.3729564 193.40082,63.7740329 193.798964,64.0786062 C194.25334,64.4261961 194.852308,64.5851031 195.449176,64.573045 C196.051356,64.5608796 196.657216,64.3742702 197.119918,64.0052869 C197.530075,63.6782052 197.754649,63.2612978 197.757799,62.8391165 C197.760886,62.4254088 197.548293,62.0247451 197.150894,61.7209109 Z M98.9365492,54.3498969 C98.4715546,53.9922381 97.8573052,53.8207817 97.244239,53.8212901 C96.6288657,53.8218004 96.0087553,53.9957261 95.5342125,54.3553817 C95.1192543,54.6698782 94.8899608,55.076574 94.8857371,55.4940254 C94.8815442,55.9084226 95.1005217,56.3125314 95.5061421,56.6246885 C95.9718468,56.9830853 96.5864492,57.1550002 97.1995665,57.1544918 C97.8146205,57.1539817 98.4340938,56.9798288 98.9077124,56.6196289 C99.3223695,56.3042709 99.5514087,55.8969184 99.5556351,55.4792059 C99.5598259,55.0650071 99.3414237,54.6613133 98.9365492,54.3498969 Z M76.8493895,54.3298668 C76.3816729,53.969586 75.7638555,53.7950916 75.1471776,53.7930068 C74.529015,53.7909169 73.9060555,53.9621453 73.4293497,54.3200137 C73.0135682,54.6321456 72.7835736,55.0370363 72.7793571,55.4537709 C72.7751588,55.8687104 72.9957157,56.2739615 73.403388,56.5881567 C73.8718159,56.9491766 74.4899867,57.1241288 75.1067151,57.1262138 C75.7245577,57.1283026 76.3468798,56.9568467 76.8226608,56.598432 C77.2381437,56.2854411 77.4678831,55.8798941 77.4721022,55.4628991 C77.4762986,55.0481563 77.2563156,54.6433207 76.8493895,54.3298668 Z M120.934857,54.2767944 C120.472588,53.9217583 119.861911,53.753338 119.252463,53.75643 C118.63987,53.759538 118.022603,53.9361617 117.550216,54.2976054 C117.136088,54.6144733 116.907494,55.0229752 116.903263,55.4411454 C116.899075,55.8549956 117.11647,56.2579634 117.520039,56.568084 C117.983017,56.9238569 118.594046,57.0927365 119.203546,57.0896442 C119.815821,57.0865379 120.432451,56.9096872 120.903914,56.5477011 C121.317738,56.2299692 121.54608,55.8208104 121.550313,55.4023782 C121.554499,54.9887281 121.337681,54.5861748 120.934857,54.2767944 Z M142.844314,54.1105592 C142.384774,53.7581466 141.777674,53.5927605 141.17185,53.5984262 C140.562029,53.6041293 139.947597,53.7834518 139.477361,54.1466849 C139.06407,54.4659309 138.836172,54.8762397 138.831934,55.2951309 C138.827752,55.7084293 139.04356,56.1102576 139.445079,56.4183432 C139.905326,56.7714913 140.512778,56.9373375 141.118655,56.9316713 C141.728158,56.9259712 142.341953,56.746422 142.811266,56.3826485 C143.224251,56.062536 143.451896,55.6515699 143.456137,55.2324161 C143.460317,54.8193194 143.245087,54.4179052 142.844314,54.1105592 Z M186.396671,53.4986908 C185.9426,53.1515275 185.342671,52.9922041 184.744111,53.0029868 C184.139807,53.013873 183.531028,53.1985956 183.065073,53.5654113 C182.653477,53.889434 182.426965,54.3033593 182.422712,54.7236983 C182.418542,55.1358789 182.631165,55.5354323 183.028586,55.8394526 C183.483363,56.1873488 184.083643,56.347134 184.682256,56.3363504 C185.286244,56.3254699 185.894387,56.1405211 186.35942,55.7731687 C186.770705,55.4482747 186.996966,55.0336914 187.001222,54.6130883 C187.00539,54.201113 186.793348,53.8019727 186.396671,53.4986908 Z M88.0046174,45.9414079 C87.5392382,45.5834532 86.9236897,45.4111079 86.3088866,45.410321 C85.6916806,45.409531 85.0692698,45.5817944 84.5923742,45.9398053 C84.1763172,46.2521441 83.9453197,46.6565187 83.9400005,47.0724182 C83.9347226,47.4850889 84.1531681,47.8876734 84.5580549,48.1992659 C85.0241445,48.5579589 85.6400461,48.7307623 86.2548998,48.7315493 C86.8717865,48.7323389 87.4935597,48.5598473 87.96953,48.2012901 C88.3852882,47.8880918 88.6160301,47.4830605 88.6213526,47.0669015 C88.626628,46.6544296 88.4087586,46.2522603 88.0046174,45.9414079 Z M109.542316,46.2982827 C109.216255,46.0478414 108.784534,45.9306393 108.354355,45.9319071 C107.920989,45.9331842 107.483231,46.0549449 107.148147,46.3090154 C106.872486,46.518029 106.713083,46.7858909 106.709522,47.0642999 C106.70602,47.33816 106.855483,47.6014776 107.12139,47.8057987 C107.447831,48.0566334 107.87974,48.1740999 108.309958,48.172832 C108.743084,48.1715556 109.18044,48.0497038 109.514984,47.7953844 C109.790571,47.5858836 109.949858,47.3176088 109.953421,47.0390045 C109.956922,46.7652949 109.807816,46.5022086 109.542316,46.2982827 Z M175.642448,45.2764708 C175.18798,44.9290033 174.586738,44.7687992 173.986433,44.7783053 C173.380319,44.7879035 172.769254,44.9709638 172.300963,45.3361428 C171.888243,45.6579865 171.660041,46.0695906 171.654685,46.4883602 C171.649435,46.8988089 171.861516,47.2968363 172.258208,47.600299 C172.713383,47.9484999 173.314975,48.1091652 173.915333,48.0996582 C174.521131,48.0900651 175.13156,47.9067778 175.598928,47.5410601 C176.011339,47.2183469 176.239289,46.8060849 176.244648,46.3870528 C176.249895,45.9768099 176.038396,45.5791957 175.642448,45.2764708 Z M131.498219,46.1807314 C131.174326,45.9323271 130.745449,45.8173951 130.31816,45.8204752 C129.886841,45.8235843 129.451192,45.9472776 129.117704,46.2025547 C128.842316,46.413357 128.683335,46.6827335 128.679765,46.9618592 C128.676269,47.235166 128.824421,47.4976359 129.088837,47.7005083 C129.413109,47.9493051 129.842174,48.0645021 130.269502,48.0614218 C130.700583,48.0583144 131.13583,47.9345301 131.468777,47.6790056 C131.744089,47.4677143 131.902956,47.1979245 131.906529,46.918603 C131.910022,46.645448 131.762228,46.383209 131.498219,46.1807314 Z M153.36527,45.9700474 C153.043549,45.7236809 152.61752,45.6110171 152.193128,45.6158995 C151.763846,45.6208381 151.3303,45.7464649 150.998402,46.0029498 C150.723295,46.2155475 150.564732,46.4864396 150.561153,46.766284 C150.557664,47.0390327 150.704502,47.3006564 150.967427,47.5020817 C151.289526,47.7488397 151.715743,47.8617691 152.140174,47.8568863 C152.569218,47.8519504 153.002363,47.7262329 153.333721,47.469502 C153.60875,47.2564134 153.767199,46.9851078 153.770781,46.7050671 C153.774267,46.4324714 153.627789,46.1710783 153.36527,45.9700474 Z M98.6527919,37.9342443 C98.3263452,37.6835066 97.8935498,37.5656528 97.4619975,37.5660107 C97.0271672,37.5663713 96.5876151,37.6869979 96.2507357,37.9400066 C95.9745285,38.1474484 95.8139278,38.413521 95.8096371,38.690764 C95.8054197,38.9632795 95.9545805,39.2253064 96.2197491,39.42906 C96.5465761,39.6801914 96.9795599,39.7983092 97.4111504,39.7979513 C97.8457416,39.7975909 98.2848915,39.6768725 98.6212286,39.4236133 C98.8973636,39.2156858 99.0578483,38.9492003 99.062142,38.6717633 C99.0663571,38.3993986 98.9175541,38.1376031 98.6527919,37.9342443 Z M120.653122,37.8632601 C120.32884,37.6145575 119.898885,37.4989758 119.470221,37.5011506 C119.037443,37.5033463 118.600003,37.6259056 118.264724,37.880123 C117.988785,38.0893482 117.828608,38.3569354 117.824307,38.6348905 C117.820098,38.9068514 117.967945,39.1680302 118.231624,39.3703369 C118.556285,39.6194324 118.986428,39.7352787 119.41513,39.7331037 C119.84767,39.7309093 120.284708,39.6082584 120.619445,39.3537919 C120.895311,39.1440793 121.055372,38.8760788 121.059676,38.5979291 C121.063883,38.3261203 120.916394,38.0651725 120.653122,37.8632601 Z M142.5646,37.6991434 C142.242487,37.4524765 141.815378,37.339165 141.389608,37.3431468 C140.958873,37.3471751 140.523539,37.4716679 140.189854,37.7270951 C139.914189,37.9381104 139.754435,38.2072132 139.750122,38.4858826 C139.745922,38.757284 139.892452,39.0176161 140.154641,39.2184775 C140.477133,39.4655363 140.90443,39.579113 141.330239,39.5751308 C141.760736,39.5711048 142.195668,39.4465207 142.528811,39.1908459 C142.804401,38.9793412 142.96404,38.7098249 142.968356,38.4309604 C142.972554,38.1597124 142.826384,37.8996109 142.5646,37.6991434 Z M164.387227,37.441894 C164.067286,37.1972635 163.643026,37.0862204 163.220157,37.0919992 C162.791456,37.0978576 162.358222,37.2242847 162.026125,37.4809229 C161.750741,37.6937351 161.591406,37.9643544 161.587083,38.2437401 C161.582891,38.5145772 161.7281,38.7740641 161.988801,38.9734818 C162.30912,39.2185032 162.733567,39.3298121 163.156475,39.3240328 C163.584939,39.3181776 164.017772,39.1916595 164.349328,38.934775 C164.624635,38.7214716 164.783855,38.4504386 164.788181,38.1708572 C164.792371,37.9001749 164.647522,37.6409182 164.387227,37.441894 Z M109.300969,29.9270823 C109.112389,29.7824443 108.861363,29.7180505 108.612333,29.7187844 C108.359146,29.7195306 108.101974,29.7880197 107.88144,30.6588521 C108.070172,30.803646 108.321273,30.8681627 108.570329,30.8674287 C108.823356,30.866683 109.080311,30.7981856 109.300969,29.9270823 Z M131.258894,29.8116494 C131.071922,29.6684607 130.823007,29.605573 130.576138,29.6073525 C130.324269,29.6091681 130.068475,29.6788246 129.846865,30.5514432 C130.033988,30.6947871 130.282978,30.7577981 130.529873,30.7560184 C130.781583,30.754204 131.03716,30.6845393 131.258894,29.8116494 Z M153.127967,29.6030838 C152.942607,29.4613451 152.695808,29.3999617 152.451106,29.4027768 C152.200546,29.4056594 151.946124,29.476484 151.723433,30.3508979 C151.908944,30.4927912 152.155817,30.5542984 152.400545,30.5514829 C152.650947,30.5486022 152.905152,30.4777696 153.127967,29.6030838 Z M120.456205,21.5386287 C120.268845,21.3951428 120.019079,21.3318409 119.771199,21.3330985 C119.518236,21.3343818 119.261155,21.4034314 119.036099,22.2699557 C119.22361,22.4135971 119.473451,22.4770221 119.721356,22.4757643 C119.974161,22.4744818 120.231024,22.4054237 120.456205,21.5386287 Z M142.369706,21.3766304 C142.183953,21.2345924 141.9363,21.1727968 141.690585,21.1750947 C141.438937,21.1774481 141.183231,21.2476658 140.957094,22.1159777 C141.142996,22.2581704 141.390724,22.3200896 141.636465,22.3177914 C141.887955,22.3154395 142.143443,22.2452134 142.369706,21.3766304 Z M131.611444,13.150177 C131.425302,13.0078414 131.176796,12.9456317 130.930069,12.9474102 C130.677329,12.949232 130.420337,13.0188416 130.190754,13.8810574 C130.377046,14.0235481 130.625627,14.085881 130.87238,14.0841023 C131.124962,14.0822816 131.381735,14.0126632 131.611444,13.150177 Z" id="Shape" stroke="#FFFFFF" fill-opacity="0.39" fill="#FFFFFF"></path>
        <path d="M113.08585,132.994847 C114.948506,131.671301 116.454011,130.344214 117.603055,129.012827 C118.75052,127.683176 119.657253,126.448878 120.323836,125.309292 C120.989619,124.170586 121.450753,123.16185 121.70765,122.282629 C121.964299,121.403683 122.169667,120.758169 122.323889,120.345939 L113.956322,117.980665 C113.713918,118.881096 113.158343,120.140072 112.288668,121.758618 C111.417514,123.37879 109.825542,125.009567 107.510958,126.65292 C105.151068,128.329989 102.802734,129.132921 100.469103,129.058256 C98.1356564,128.983387 96.293614,128.268895 94.9441877,126.913445 L115.609225,112.257725 L114.367113,110.948965 C112.334887,108.80025 110.163283,107.036919 107.851433,105.659929 C105.542718,104.279491 103.179425,103.362381 100.759975,102.910333 C98.3415555,102.457151 95.9107668,102.484656 93.4658329,102.994799 C91.019562,103.506413 88.6227316,104.593882 86.2733372,106.25941 C83.9199333,107.929347 82.1580218,109.807011 80.9887615,111.891127 C79.817037,113.977953 79.1627939,116.109961 79.0276463,118.285378 C78.8921864,120.461138 79.2544432,122.633545 80.1160196,124.800838 C80.9794211,126.966124 82.2492604,128.947355 83.9263913,130.743592 C85.8467403,132.792445 87.9735305,134.402299 90.3058971,135.574105 C92.6409811,136.742923 95.0796572,137.425169 97.6202915,137.622641 C100.161465,137.81952 102.753607,137.538467 105.394847,136.781541 C108.034132,136.026764 110.598421,134.763848 113.08585,132.994847 Z M90.2095766,121.86704 C89.696361,121.316961 89.3097859,120.661389 89.0497865,119.900395 C88.7899786,119.13919 88.6974442,118.335228 88.7719873,117.488724 C88.846461,116.642296 89.1321766,115.783082 89.6288556,114.91139 C90.1250934,114.040182 90.8897607,113.237868 91.9226097,112.50472 C92.9546875,111.77242 93.9866396,111.299648 95.0188717,111.085957 C96.0508734,110.87252 97.0359574,110.829527 97.9743809,110.956694 C98.9129171,111.083738 99.7708798,111.343939 100.54841,111.737142 C101.326241,112.130015 101.972357,112.600839 102.486742,113.149633 L90.2095766,121.86704 Z M145.56421,110.059289 C147.826965,108.472925 149.533767,106.67443 150.685568,104.66276 C151.834769,102.653948 152.475525,100.579496 152.609406,98.4376746 C152.742782,96.2964101 152.385132,94.1511399 151.538105,92.0000526 C150.692768,89.8471059 149.367289,87.8317166 147.562903,85.9525272 C145.761853,84.0696686 143.707724,82.5576003 141.399944,81.4169514 C139.094737,80.2734721 136.7004,79.5384467 134.215505,79.2134444 C131.731281,78.887704 129.235746,79.0083636 126.727145,79.5773552 C124.216872,80.1481847 121.836702,81.2198061 119.584986,82.7940324 C117.3294,84.3725141 115.594063,86.1797852 114.379873,88.2148599 C113.163007,90.2528757 112.464717,92.367993 112.286628,94.5584233 C112.108033,96.7494099 112.420927,98.9438917 113.226958,101.140057 C114.03468,103.334363 115.333303,105.379282 117.124062,107.273457 C118.918157,109.163963 120.980823,110.666643 123.311488,111.782129 C125.644728,112.894784 128.07627,113.5889 130.604688,113.866046 C133.133778,114.142453 135.69367,113.973627 138.282595,113.361511 C140.869834,112.75125 143.297584,111.649909 145.56421,110.059289 Z M139.017116,103.328328 C137.92609,104.093243 136.762797,104.591861 135.527674,104.823703 C134.292234,105.055892 133.07822,105.046305 131.886085,104.794443 C130.69424,104.542262 129.556538,104.115717 128.473245,103.514517 C127.390596,102.912609 126.434776,102.175906 125.605834,101.304352 C124.777603,100.432017 124.127944,99.4794301 123.656674,98.4467926 C123.185872,97.4136419 122.933098,96.3788158 122.89801,95.3426931 C122.862928,94.3065622 123.099621,93.2920037 123.607667,92.2994799 C124.115161,91.3075639 124.913218,90.4304716 126.001577,89.668489 C127.089037,88.9074957 128.235272,88.4236085 129.440738,88.216327 C130.645911,88.009367 131.840708,88.0215114 133.025537,88.2523115 C134.210617,88.482835 135.331697,88.909083 136.389073,89.5307295 C137.447096,90.1516647 138.391262,90.8971581 139.221617,91.7671571 C140.052684,92.6363745 140.717935,93.5758424 141.217198,94.5857496 C141.716943,95.5951273 141.988251,96.6281467 142.030763,97.685202 C142.073279,98.7422536 141.854438,99.7557568 141.373843,100.726147 C140.892724,101.697112 140.107243,102.564403 139.017116,103.328328 Z M176.910347,88.2237723 C178.448847,87.160049 179.797281,85.9589209 180.955699,84.6203346 C182.112304,83.2837413 182.942745,81.8884887 183.44768,80.4338556 C183.951676,78.9802538 184.052882,77.5200467 183.752249,76.0521868 C183.451949,74.5839612 182.617403,73.1536755 181.249768,71.7600558 C179.219322,69.6836762 176.960528,68.4510989 174.470877,68.0650836 C171.982031,67.6781831 168.981904,68.0926619 165.466031,69.3134296 C162.899718,70.2417799 160.815303,70.9288065 159.214271,71.3728788 C157.61238,71.8178941 156.413252,71.6238616 155.618019,70.7895356 C155.065199,70.2087115 154.920408,69.541445 155.183229,68.7881955 C155.44581,68.0352111 156.226025,67.2108577 157.523048,66.3160449 C158.975688,65.3145272 160.486919,64.6339613 162.057476,64.2735398 C163.627322,63.9138996 165.121304,63.6967875 166.539807,63.6217776 L165.183204,56 C162.807023,56.0692937 160.508922,56.4607103 158.287755,57.175508 C156.064632,57.8924558 153.777456,59.0605511 151.42436,60.6818451 C149.774549,61.8196575 148.410859,63.077178 147.333642,64.4540208 C146.254715,65.8327429 145.525985,67.2412254 145.148234,68.6786102 C144.769814,70.1167299 144.738762,71.5255037 145.055866,72.9040667 C145.373351,74.2822114 146.100787,75.5717998 147.238899,76.7720374 C148.343806,77.9344929 149.559705,78.7783672 150.886156,79.3041454 C152.213283,79.829181 153.578328,80.1169034 154.980801,80.1678525 C156.383294,80.2187786 157.808994,80.0881874 159.257476,79.7765444 C160.705414,79.4654991 162.084342,79.0672013 163.394113,78.5818131 C165.009429,78.0056528 166.36228,77.5512133 167.453158,77.2179528 C168.543606,76.8851662 169.438104,76.6727848 170.13691,76.580523 C170.835632,76.4883542 171.404402,76.5158422 171.843329,76.662866 C172.282319,76.8098214 172.659214,77.0445452 172.974043,77.3670063 C173.77906,78.1905741 173.909247,79.0298994 173.363699,79.8859768 C172.817598,80.7426627 171.914093,81.6066082 170.652651,82.478399 C169.271501,83.4335111 167.594385,84.1738809 165.621523,84.6992663 C163.647442,85.225991 161.837378,85.4290794 160.192352,85.3074077 L160.783092,93.1954629 C163.403629,93.4778142 166.126109,93.1485019 168.94779,92.2105416 C171.766456,91.2758954 174.421113,89.9464543 176.910347,88.2237723 Z" id="eos" stroke="#C78C03" fill-opacity="0.39" fill="#BE8F30" fill-rule="nonzero" transform="translate(131.460443, 96.841743) rotate(-3.000000) translate(-131.460443, -96.841743) "></path>
    </g>
</svg>